<svg t="1724741062075" class="icon" viewBox="0 0 1024 1024" version="1.1" xmlns="http://www.w3.org/2000/svg" p-id="2111" width="128" height="128" fill="#808080"><path d="M584.089363 398.484643 417.228031 398.484643l0 104.287181 166.861332 0L584.089363 398.484643zM563.231313 481.914798 438.086082 481.914798l0-62.572104L563.231313 419.342694 563.231313 481.914798zM354.655927 398.484643l-166.860309 0 0 104.287181 166.860309 0L354.655927 398.484643zM333.797877 481.914798 208.652646 481.914798l0-62.572104 125.145232 0L333.797877 481.914798zM354.655927 565.344952l-166.860309 0 0 104.298438 166.860309 0L354.655927 565.344952zM333.797877 648.78534 208.652646 648.78534l0-62.582337 125.145232 0L333.797877 648.78534zM584.089363 231.623311 417.228031 231.623311l0 104.288205 166.861332 0L584.089363 231.623311zM563.231313 315.054489 438.086082 315.054489l0-62.573127L563.231313 252.481362 563.231313 315.054489zM813.521776 461.056748l-83.429131 0 0 83.430154 83.429131 0L813.521776 461.056748zM792.664749 523.629875l-41.7161 0 0-41.7161 41.7161 0L792.664749 523.629875zM917.808958 857.360725 917.808958 377.627616l-250.290463 0L667.518494 106.47808 104.365464 106.47808l0 750.882646L62.650387 857.360725l0 41.7161 896.875694 0 0-41.7161L917.808958 857.360725zM625.804441 857.360725 146.079518 857.360725 146.079518 148.19418l479.723899 0L625.803417 857.360725zM876.094904 857.360725 667.518494 857.360725 667.518494 419.34167l208.575386 0L876.09388 857.360725zM584.089363 565.344952 417.228031 565.344952l0 104.298438 166.861332 0L584.089363 565.344952zM563.231313 648.78534 438.086082 648.78534l0-62.582337L563.231313 586.203002 563.231313 648.78534zM354.655927 231.623311l-166.860309 0 0 104.288205 166.860309 0L354.655927 231.623311zM333.797877 315.054489 208.652646 315.054489l0-62.573127 125.145232 0L333.797877 315.054489zM813.521776 586.203002l-83.429131 0 0 83.440387 83.429131 0L813.521776 586.203002zM792.664749 648.78534l-41.7161 0L750.948649 607.069239l41.7161 0L792.664749 648.78534z" p-id="2112"></path></svg>