<svg t="1724741173296" class="icon" viewBox="0 0 1024 1024" version="1.1" xmlns="http://www.w3.org/2000/svg" p-id="2431" width="128" height="128"><path d="M236.226143 434.149934l17.187451-21.475104-22.149463 5.565762-11.665691-20.698414-10.511401 31.81766-28.892027 14.316054 19.735483 4.78498-4.945639 28.625968 23.37129-26.264177 23.370267 8.762571L236.226143 434.149934 236.226143 434.149934zM165.985382 571.71094l-29.492708 39.746236-38.138622 6.329149 23.370267 25.488511-21.528316 43.757596 38.156018-30.211069 27.01119 26.257014 1.859347-42.120306 33.261545-27.02961-35.054377-1.642406L165.985382 571.71094 165.985382 571.71094zM337.116971 321.242422l11.128455 6.387477 4.945639-15.966647 17.143449-13.547551-13.485129-2.361791 0-12.716626-14.147208 16.731056-19.113313 3.190669 6.743588 12.660344-11.68411 16.685008L337.116971 321.242422 337.116971 321.242422zM409.112702 459.580117l-52.92949 16.672728-24.610514-46.896076-16.009625 66.831105-56.631812 29.389354 44.926212 10.356882-10.422374 67.590398 43.677778-56.471153 51.752688 15.909341-18.536168-52.462862L409.112702 459.580117 409.112702 459.580117zM318.087569 757.775636l-7.426133-48.437176-25.829272 39.693024-52.374858-1.540076 33.260521 35.000142-20.884656 46.142923 46.781466-23.851221 35.05847 33.372062-2.464121-50.146097 45.565778-20.650319L318.087569 757.775636 318.087569 757.775636zM486.543212 121.31909l-97.562013 801.681612 105.343233 2.219551-2.574638-803.901163C488.338091 116.835985 486.543212 121.31909 486.543212 121.31909L486.543212 121.31909zM816.810171 202.928782c0 0-82.105996-52.521191-237.605559-15.656585 0 0 198.689225-18.948561 248.78211 132.883473 0 0 34.591843 154.038282-83.770915 272.41025 0 0-85.546352 94.934163-142.617162 118.371968L525.633508 104.634082c0 0-6.033413-9.978259-6.033413 5.605671l0 806.120714c0 0 92.421946-32.386618 101.069907-48.037063l-12.109806-100.501972c0 0 254.016321-127.271662 305.814034-338.261027C914.439722 429.559383 962.846198 274.337135 816.810171 202.928782L816.810171 202.928782zM816.810171 202.928782" fill="#808080" p-id="2432"></path></svg>